<svg width="36" height="35" viewBox="0 0 36 35" fill="none" xmlns="http://www.w3.org/2000/svg">
<path d="M15 13.6106L22.9995 17.4927L15 21.3894V13.6106ZM30 0C33.3137 0 36 2.68629 36 6V29C36 32.3137 33.3137 35 30 35H6C2.68629 35 0 32.3137 0 29V6C0 2.68629 2.68629 0 6 0H30ZM30 17.5C29.97 11.4873 29.5155 9.1875 25.6155 8.92937C22.011 8.69021 13.9845 8.69167 10.386 8.92937C6.489 9.1875 6.03 11.4771 6 17.5C6.03 23.5127 6.4845 25.8125 10.3845 26.0706C13.983 26.3083 22.0095 26.3098 25.614 26.0706C29.511 25.8125 29.97 23.5229 30 17.5Z" fill="#F4FFFD"/>
</svg>
